<svg viewBox="0 0 497 140" fill="none" xmlns="http://www.w3.org/2000/svg">
<g clip-path="url(#clip0_229_25)">
<path d="M82.0325 37.3469L65.7122 70L82.0325 102.653" stroke="white" stroke-width="12" stroke-linecap="square"/>
<path d="M134.258 37.3469L150.578 70L134.258 102.653" stroke="white" stroke-width="12" stroke-linecap="square"/>
<path d="M124.465 53.6735H91.8247V59.3877H124.465V53.6735Z" fill="#2B6CFF"/>
<path d="M114.673 66.7347H91.8247V72.449H114.673V66.7347Z" fill="#2B6CFF"/>
<path d="M121.201 79.7959H91.8247V85.5102H121.201V79.7959Z" fill="#2B6CFF"/>
<path d="M198.756 94.4898V42.049H231.357V50.382H207.588V64.3902H229.49V72.7232H207.732V94.4898H198.756Z" fill="white"/>
<path d="M257.611 95.2081C252.585 95.2081 248.635 93.8193 245.763 91.0416C242.89 88.216 241.454 84.3847 241.454 79.5477V54.9796H250.43V79.4759C250.43 82.0141 251.053 83.9777 252.297 85.3665C253.542 86.7075 255.313 87.3779 257.611 87.3779C259.861 87.3779 261.609 86.7075 262.853 85.3665C264.146 83.9777 264.792 82.0141 264.792 79.4759V54.9796H273.769V79.5477C273.769 84.3847 272.308 88.216 269.388 91.0416C266.468 93.8193 262.542 95.2081 257.611 95.2081Z" fill="white"/>
<path d="M284.727 94.4898V86.3722L305.337 62.8816H285.374V54.9796H315.821V63.0971L294.996 86.5877H316.611V94.4898H284.727Z" fill="white"/>
<path d="M343.727 95.1363C340.376 95.1363 337.455 94.5137 334.966 93.2685C332.524 91.9755 330.609 90.1796 329.221 87.8808C327.881 85.5341 327.211 82.7804 327.211 79.6196V69.8498C327.211 66.689 327.881 63.9592 329.221 61.6604C330.609 59.3137 332.524 57.5178 334.966 56.2726C337.455 54.9796 340.376 54.333 343.727 54.333C347.126 54.333 350.046 54.9796 352.487 56.2726C354.929 57.5178 356.82 59.3137 358.16 61.6604C359.549 63.9592 360.243 66.665 360.243 69.7779V79.6196C360.243 82.7804 359.549 85.5341 358.16 87.8808C356.82 90.1796 354.929 91.9755 352.487 93.2685C350.046 94.5137 347.126 95.1363 343.727 95.1363ZM343.727 87.3061C346.12 87.3061 347.963 86.6596 349.256 85.3665C350.596 84.0256 351.267 82.1099 351.267 79.6196V69.8498C351.267 67.3115 350.596 65.3959 349.256 64.1028C347.963 62.8098 346.12 62.1632 343.727 62.1632C341.381 62.1632 339.538 62.8098 338.197 64.1028C336.857 65.3959 336.187 67.3115 336.187 69.8498V79.6196C336.187 82.1099 336.857 84.0256 338.197 85.3665C339.538 86.6596 341.381 87.3061 343.727 87.3061Z" fill="white"/>
<path d="M371.992 94.4898V54.9796H380.465V62.5224H382.691L380.034 67.12C380.034 62.8577 380.992 59.649 382.907 57.4938C384.822 55.3387 387.646 54.2612 391.38 54.2612C395.641 54.2612 398.992 55.5782 401.434 58.2122C403.875 60.8462 405.096 64.486 405.096 69.1314V72.0049H395.689V69.7779C395.689 67.2397 395.019 65.2762 393.678 63.8873C392.386 62.4985 390.59 61.8041 388.292 61.8041C385.947 61.8041 384.127 62.4985 382.835 63.8873C381.59 65.2762 380.968 67.2397 380.968 69.7779V94.4898H371.992Z" fill="white"/>
<path d="M429.842 95.2081C427.783 95.2081 426.132 94.6095 424.887 93.4122C423.69 92.2149 423.092 90.5866 423.092 88.5273C423.092 86.468 423.69 84.8397 424.887 83.6424C426.132 82.3973 427.783 81.7747 429.842 81.7747C431.901 81.7747 433.528 82.3973 434.725 83.6424C435.97 84.8397 436.592 86.468 436.592 88.5273C436.592 90.5866 435.97 92.2149 434.725 93.4122C433.528 94.6095 431.901 95.2081 429.842 95.2081Z" fill="#2B6CFF"/>
</g>
<defs>
<clipPath id="clip0_229_25">
<rect width="377" height="80" fill="white" transform="translate(60 30)"/>
</clipPath>
</defs>
</svg>
